<?xml version="1.0" encoding="UTF-8" standalone="no"?>
<!DOCTYPE svg PUBLIC "-//W3C//DTD SVG 1.1//EN"
 "http://www.w3.org/Graphics/SVG/1.1/DTD/svg11.dtd">
<!-- Generated by graphviz version 2.38.0 (20140413.2041)
 -->
<!-- Title: g Pages: 1 -->
<svg width="402pt" height="593pt"
 viewBox="0.00 0.00 402.00 593.00" xmlns="http://www.w3.org/2000/svg" xmlns:xlink="http://www.w3.org/1999/xlink">
<g id="graph0" class="graph" transform="scale(1 1) rotate(0) translate(4 589)">
<title>g</title>
<polygon fill="white" stroke="none" points="-4,4 -4,-589 398,-589 398,4 -4,4"/>
<g id="clust1" class="cluster"><title>cluster_1085397476</title>
<polygon fill="#ececec" stroke="black" points="8,-8 8,-83 98,-83 98,-8 8,-8"/>
<text text-anchor="middle" x="38.5" y="-67.8" font-family="Times,serif" font-size="14.00">Defensa</text>
</g>
<g id="clust2" class="cluster"><title>cluster_1272524065</title>
<polygon fill="#ececec" stroke="black" points="106,-8 106,-83 190,-83 190,-8 106,-8"/>
<text text-anchor="middle" x="134" y="-67.8" font-family="Times,serif" font-size="14.00">Portero</text>
</g>
<g id="clust3" class="cluster"><title>cluster_1525653958</title>
<polygon fill="#ececec" stroke="black" points="198,-8 198,-83 296,-83 296,-8 198,-8"/>
<text text-anchor="middle" x="233" y="-67.8" font-family="Times,serif" font-size="14.00">Delantero</text>
</g>
<g id="clust4" class="cluster"><title>cluster_2083359327</title>
<polygon fill="#ececec" stroke="black" points="92,-467 92,-577 302,-577 302,-467 92,-467"/>
<text text-anchor="middle" x="120" y="-561.8" font-family="Times,serif" font-size="14.00">Equipo</text>
</g>
<g id="clust5" class="cluster"><title>cluster_403518370</title>
<polygon fill="#ececec" stroke="black" points="86,-102 86,-419 308,-419 308,-102 86,-102"/>
<text text-anchor="middle" x="115.5" y="-403.8" font-family="Times,serif" font-size="14.00">Jugador</text>
</g>
<g id="clust6" class="cluster"><title>cluster_74219474</title>
<polygon fill="#ececec" stroke="black" points="304,-8 304,-83 386,-83 386,-8 304,-8"/>
<text text-anchor="middle" x="330.5" y="-67.8" font-family="Times,serif" font-size="14.00">Medio</text>
</g>
<!-- Defensa1085397476 -->
<g id="node1" class="node"><title>Defensa1085397476</title>
<polygon fill="#ffffff" stroke="none" points="89.5,-52 16.5,-52 16.5,-16 89.5,-16 89.5,-52"/>
<text text-anchor="start" x="22" y="-29.8" font-family="Times,serif" font-size="14.00">(C)Defensa</text>
<polygon fill="none" stroke="black" points="16.5,-21.5 16.5,-46.5 89.5,-46.5 89.5,-21.5 16.5,-21.5"/>
</g>
<!-- Portero1272524065 -->
<g id="node2" class="node"><title>Portero1272524065</title>
<polygon fill="#ffffff" stroke="none" points="182,-52 114,-52 114,-16 182,-16 182,-52"/>
<text text-anchor="start" x="119" y="-29.8" font-family="Times,serif" font-size="14.00">(C)Portero</text>
<polygon fill="none" stroke="black" points="114,-21.5 114,-46.5 182,-46.5 182,-21.5 114,-21.5"/>
</g>
<!-- Delantero1525653958 -->
<g id="node3" class="node"><title>Delantero1525653958</title>
<polygon fill="#ffffff" stroke="none" points="288,-52 206,-52 206,-16 288,-16 288,-52"/>
<text text-anchor="start" x="211" y="-29.8" font-family="Times,serif" font-size="14.00">(C)Delantero</text>
<polygon fill="none" stroke="black" points="206,-21.5 206,-46.5 288,-46.5 288,-21.5 206,-21.5"/>
</g>
<!-- Equipo2083359327 -->
<g id="node4" class="node"><title>Equipo2083359327</title>
<polygon fill="#ffffff" stroke="none" points="293.5,-546 100.5,-546 100.5,-475 293.5,-475 293.5,-546"/>
<text text-anchor="start" x="106" y="-529.3" font-family="Times,serif" font-size="14.00">(C)Equipo</text>
<text text-anchor="start" x="106" y="-506.3" font-family="Times,serif" font-size="14.00">&#45; &#160;&#160;equipo: Jugador[] [0..*]</text>
<text text-anchor="start" x="106" y="-483.3" font-family="Times,serif" font-size="14.00">+ getJugador(index: int): Jugador</text>
<polygon fill="black" stroke="black" points="101,-521.5 101,-521.5 294,-521.5 294,-521.5 101,-521.5"/>
<polygon fill="black" stroke="black" points="101,-498.5 101,-498.5 294,-498.5 294,-498.5 101,-498.5"/>
<polygon fill="none" stroke="black" points="100.5,-475 100.5,-546 293.5,-546 293.5,-475 100.5,-475"/>
</g>
<!-- Jugador403518370 -->
<g id="node5" class="node"><title>Jugador403518370</title>
<polygon fill="#ffffff" stroke="none" points="299.5,-388 94.5,-388 94.5,-110 299.5,-110 299.5,-388"/>
<text text-anchor="start" x="100" y="-371.8" font-family="Times,serif" font-size="14.00">(C)Jugador</text>
<text text-anchor="start" x="100" y="-348.8" font-family="Times,serif" font-size="14.00"># &#160;&#160;agilidad: int [1]</text>
<text text-anchor="start" x="100" y="-325.8" font-family="Times,serif" font-size="14.00"># &#160;&#160;atributoPropioAtaque: int [1]</text>
<text text-anchor="start" x="100" y="-302.8" font-family="Times,serif" font-size="14.00"># &#160;&#160;atributoPropioDefensa: int [1]</text>
<text text-anchor="start" x="100" y="-279.8" font-family="Times,serif" font-size="14.00"># &#160;&#160;fisico: int [1]</text>
<text text-anchor="start" x="100" y="-256.8" font-family="Times,serif" font-size="14.00"># &#160;&#160;probabilidadAtaque: double [1]</text>
<text text-anchor="start" x="100" y="-233.8" font-family="Times,serif" font-size="14.00"># &#160;&#160;probabilidadDefensa: double [1]</text>
<text text-anchor="start" x="100" y="-210.8" font-family="Times,serif" font-size="14.00"># &#160;&#160;reflejos: int [1]</text>
<text text-anchor="start" x="100" y="-187.8" font-family="Times,serif" font-size="14.00"># &#160;&#160;tipo: String [0..1]</text>
<text text-anchor="start" x="100" y="-164.8" font-family="Times,serif" font-size="14.00"># &#160;&#160;velocidad: int [1]</text>
<text text-anchor="start" x="100" y="-141.8" font-family="Times,serif" font-size="14.00">+ atacar(): double</text>
<text text-anchor="start" x="100" y="-118.8" font-family="Times,serif" font-size="14.00">+ defender(): double</text>
<polygon fill="black" stroke="black" points="95,-364 95,-364 300,-364 300,-364 95,-364"/>
<polygon fill="black" stroke="black" points="95,-157 95,-157 300,-157 300,-157 95,-157"/>
<polygon fill="none" stroke="black" points="94.5,-110 94.5,-388 299.5,-388 299.5,-110 94.5,-110"/>
</g>
<!-- Equipo2083359327&#45;&gt;Jugador403518370 -->
<g id="edge1" class="edge"><title>Equipo2083359327&#45;&gt;Jugador403518370</title>
<path fill="none" stroke="black" d="M197,-474.772C197,-454.326 197,-426.911 197,-398.267"/>
<polygon fill="black" stroke="black" points="200.5,-398.093 197,-388.093 193.5,-398.093 200.5,-398.093"/>
<text text-anchor="middle" x="215.5" y="-445.8" font-family="Times,serif" font-size="14.00">equipo</text>
<text text-anchor="middle" x="215.5" y="-430.8" font-family="Times,serif" font-size="14.00">[0..*]</text>
</g>
<!-- Jugador403518370&#45;&gt;Defensa1085397476 -->
<g id="edge2" class="edge"><title>Jugador403518370&#45;&gt;Defensa1085397476</title>
<path fill="none" stroke="black" d="M97.8208,-101.298C84.604,-81.7475 72.8192,-64.3159 64.6545,-52.239"/>
<polygon fill="none" stroke="black" points="95.0662,-103.472 103.567,-109.796 100.865,-99.5516 95.0662,-103.472"/>
</g>
<!-- Jugador403518370&#45;&gt;Portero1272524065 -->
<g id="edge5" class="edge"><title>Jugador403518370&#45;&gt;Portero1272524065</title>
<path fill="none" stroke="black" d="M162.951,-99.9916C158.576,-80.972 154.682,-64.0463 151.966,-52.239"/>
<polygon fill="none" stroke="black" points="159.554,-100.836 165.207,-109.796 166.376,-99.2662 159.554,-100.836"/>
</g>
<!-- Jugador403518370&#45;&gt;Delantero1525653958 -->
<g id="edge3" class="edge"><title>Jugador403518370&#45;&gt;Delantero1525653958</title>
<path fill="none" stroke="black" d="M231.744,-99.9916C236.208,-80.972 240.182,-64.0463 242.953,-52.239"/>
<polygon fill="none" stroke="black" points="228.32,-99.2611 229.442,-109.796 235.135,-100.861 228.32,-99.2611"/>
</g>
<!-- Medio74219474 -->
<g id="node6" class="node"><title>Medio74219474</title>
<polygon fill="#ffffff" stroke="none" points="377.5,-52 312.5,-52 312.5,-16 377.5,-16 377.5,-52"/>
<text text-anchor="start" x="318" y="-29.8" font-family="Times,serif" font-size="14.00">(C)Medio</text>
<polygon fill="none" stroke="black" points="312.5,-21.5 312.5,-46.5 377.5,-46.5 377.5,-21.5 312.5,-21.5"/>
</g>
<!-- Jugador403518370&#45;&gt;Medio74219474 -->
<g id="edge4" class="edge"><title>Jugador403518370&#45;&gt;Medio74219474</title>
<path fill="none" stroke="black" d="M298.752,-101.559C312.41,-81.9033 324.593,-64.3698 333.022,-52.239"/>
<polygon fill="none" stroke="black" points="295.861,-99.587 293.029,-109.796 301.609,-103.581 295.861,-99.587"/>
</g>
</g>
</svg>
